G04*
G04 #@! TF.GenerationSoftware,Altium Limited,Altium Designer,19.0.15 (446)*
G04*
G04 Layer_Physical_Order=1*
G04 Layer_Color=255*
%FSLAX44Y44*%
%MOMM*%
G71*
G01*
G75*
%ADD12C,0.6000*%
%ADD15C,0.2540*%
%ADD18R,2.5400X3.0000*%
%ADD19R,2.2000X2.0000*%
%ADD20R,5.4000X3.5000*%
%ADD21R,4.5000X2.0000*%
%ADD22R,1.6510X1.2700*%
%ADD23R,1.9000X1.2700*%
%ADD24R,1.2700X1.6510*%
%ADD25R,0.6000X2.0000*%
%ADD26R,2.0000X0.6000*%
%ADD27R,2.3000X2.3000*%
%ADD53C,0.5000*%
%ADD54C,1.0000*%
%ADD55C,1.8000*%
%ADD56R,3.0000X5.6490*%
%ADD57R,5.7500X11.1650*%
%ADD58R,5.0000X2.7020*%
%ADD59C,3.0000*%
%ADD60C,1.8000*%
%ADD61R,2.1000X2.1000*%
%ADD62P,2.2730X8X292.5*%
%ADD63C,2.5000*%
%ADD64C,1.6000*%
%ADD65P,2.1648X8X22.5*%
%ADD66R,2.0000X2.0000*%
%ADD67C,2.8000*%
%ADD68C,1.0000*%
%ADD69C,4.0000*%
G04:AMPARAMS|DCode=70|XSize=1.6mm|YSize=2mm|CornerRadius=0mm|HoleSize=0mm|Usage=FLASHONLY|Rotation=0.000|XOffset=0mm|YOffset=0mm|HoleType=Round|Shape=Octagon|*
%AMOCTAGOND70*
4,1,8,-0.4000,1.0000,0.4000,1.0000,0.8000,0.6000,0.8000,-0.6000,0.4000,-1.0000,-0.4000,-1.0000,-0.8000,-0.6000,-0.8000,0.6000,-0.4000,1.0000,0.0*
%
%ADD70OCTAGOND70*%

G04:AMPARAMS|DCode=71|XSize=1.5mm|YSize=2mm|CornerRadius=0mm|HoleSize=0mm|Usage=FLASHONLY|Rotation=0.000|XOffset=0mm|YOffset=0mm|HoleType=Round|Shape=Octagon|*
%AMOCTAGOND71*
4,1,8,-0.3750,1.0000,0.3750,1.0000,0.7500,0.6250,0.7500,-0.6250,0.3750,-1.0000,-0.3750,-1.0000,-0.7500,-0.6250,-0.7500,0.6250,-0.3750,1.0000,0.0*
%
%ADD71OCTAGOND71*%

%ADD72C,1.5748*%
%ADD73P,7.5768X8X292.5*%
G36*
X936081Y432391D02*
X917460Y413770D01*
Y397500D01*
X927288D01*
X929600Y397196D01*
X931912Y397500D01*
X955000D01*
Y395000D01*
X957500D01*
Y357460D01*
X973770D01*
X991000Y374690D01*
X995000Y373033D01*
X995000Y66967D01*
X991000Y65310D01*
X973770Y82540D01*
X957500D01*
Y45000D01*
X955000D01*
Y42500D01*
X931912D01*
X929600Y42804D01*
X927288Y42500D01*
X917460D01*
Y26230D01*
X934890Y8800D01*
X933233Y4800D01*
X66767Y4800D01*
X65110Y8800D01*
X82540Y26230D01*
Y41493D01*
X84385Y42565D01*
X86540Y42972D01*
X93506Y36006D01*
X93506Y36006D01*
X95338Y34781D01*
X97500Y34351D01*
X100870Y32350D01*
Y29205D01*
X118650D01*
Y50795D01*
X118650D01*
Y54205D01*
X118650D01*
Y75795D01*
X108858D01*
X95648Y89005D01*
Y100411D01*
X96351Y101017D01*
X99649Y102177D01*
X101166Y100931D01*
X104040Y99395D01*
X107158Y98449D01*
X107900Y98376D01*
Y114750D01*
Y131124D01*
X107158Y131051D01*
X104040Y130105D01*
X101166Y128569D01*
X99649Y127323D01*
X96351Y128483D01*
X95648Y129089D01*
Y136010D01*
X103384Y143746D01*
X104040Y143395D01*
X107158Y142449D01*
X110400Y142130D01*
X113642Y142449D01*
X116760Y143395D01*
X119634Y144931D01*
X122152Y146998D01*
X124219Y149516D01*
X125755Y152390D01*
X126701Y155508D01*
X127020Y158750D01*
X126701Y161992D01*
X125755Y165110D01*
X124219Y167984D01*
X122152Y170502D01*
X119634Y172569D01*
X116760Y174105D01*
X113642Y175051D01*
X110400Y175370D01*
X107158Y175051D01*
X104040Y174105D01*
X101166Y172569D01*
X98648Y170502D01*
X96581Y167984D01*
X95045Y165110D01*
X94099Y161992D01*
X93780Y158750D01*
X94099Y155508D01*
X95045Y152390D01*
X95396Y151734D01*
X86006Y142344D01*
X84781Y140512D01*
X84351Y138350D01*
X84352Y138350D01*
Y91794D01*
X80351Y90137D01*
X70774Y99715D01*
X72260Y103885D01*
X72499Y103917D01*
X74455Y104727D01*
X76134Y106016D01*
X77423Y107695D01*
X78233Y109651D01*
X78509Y111750D01*
X78233Y113849D01*
X77423Y115805D01*
X76134Y117484D01*
X74455Y118773D01*
X72499Y119583D01*
X70400Y119859D01*
X68301Y119583D01*
X66345Y118773D01*
X64666Y117484D01*
X63377Y115805D01*
X62567Y113849D01*
X62499Y113333D01*
X60279Y111709D01*
X59121Y111111D01*
X58360Y110958D01*
X56900Y111249D01*
X56900Y111249D01*
X51016D01*
X50755Y112110D01*
X49219Y114984D01*
X47152Y117502D01*
X44634Y119569D01*
X41760Y121105D01*
X41048Y121321D01*
Y152179D01*
X41760Y152395D01*
X44634Y153931D01*
X47152Y155998D01*
X49219Y158516D01*
X50755Y161390D01*
X51701Y164508D01*
X52020Y167750D01*
X51701Y170992D01*
X50755Y174110D01*
X49219Y176984D01*
X47152Y179502D01*
X44634Y181569D01*
X41760Y183105D01*
X38642Y184051D01*
X35400Y184370D01*
X32158Y184051D01*
X29040Y183105D01*
X26166Y181569D01*
X23648Y179502D01*
X21581Y176984D01*
X20045Y174110D01*
X19099Y170992D01*
X18780Y167750D01*
X19099Y164508D01*
X20045Y161390D01*
X21581Y158516D01*
X23648Y155998D01*
X26166Y153931D01*
X29040Y152395D01*
X29752Y152179D01*
Y121321D01*
X29040Y121105D01*
X26166Y119569D01*
X23648Y117502D01*
X21581Y114984D01*
X20045Y112110D01*
X19099Y108992D01*
X18780Y105750D01*
X19099Y102508D01*
X20045Y99390D01*
X21581Y96516D01*
X23648Y93998D01*
X26166Y91931D01*
X29040Y90395D01*
X32158Y89449D01*
X35400Y89130D01*
X38642Y89449D01*
X41760Y90395D01*
X44634Y91931D01*
X47152Y93998D01*
X49219Y96516D01*
X50755Y99390D01*
X50771Y99443D01*
X54647Y99865D01*
X83201Y71311D01*
X82894Y69073D01*
X78662Y67648D01*
X63770Y82540D01*
X47500D01*
Y45000D01*
X42500D01*
Y68088D01*
X42804Y70400D01*
X42500Y72712D01*
Y82540D01*
X26230D01*
X9000Y65310D01*
X5000Y66967D01*
X5000Y373033D01*
X9000Y374690D01*
X26230Y357460D01*
X42500D01*
Y367288D01*
X42804Y369600D01*
X42500Y371912D01*
Y395000D01*
X45000D01*
Y397500D01*
X82540D01*
Y413770D01*
X63919Y432391D01*
X64131Y436391D01*
X133273D01*
X134930Y432391D01*
X122907Y420368D01*
X122711Y420221D01*
X120749Y419892D01*
X117714Y420134D01*
X116315Y421207D01*
X113751Y422269D01*
X113500Y422302D01*
Y412000D01*
Y401698D01*
X113751Y401731D01*
X116315Y402793D01*
X117714Y403866D01*
X119699Y404025D01*
X123395Y401311D01*
Y367253D01*
X121998Y365878D01*
X118517Y364517D01*
X116315Y366207D01*
X113751Y367269D01*
X113500Y367302D01*
Y357000D01*
Y346698D01*
X113751Y346731D01*
X116315Y347793D01*
X118517Y349483D01*
X121998Y348122D01*
X123395Y346747D01*
Y309240D01*
X123654Y307272D01*
X124414Y305438D01*
X125622Y303862D01*
X137396Y292089D01*
Y286071D01*
X133396Y284414D01*
X130270Y287540D01*
X119730D01*
X115000Y282810D01*
X110270Y287540D01*
X99730D01*
X94460Y282270D01*
Y267730D01*
X96987Y265203D01*
X97022Y259582D01*
X94960Y257520D01*
Y252500D01*
X105000D01*
Y247500D01*
X94960D01*
Y242480D01*
X96139Y241301D01*
X94609Y237605D01*
X88150D01*
X75377Y250378D01*
X73802Y251586D01*
X71968Y252346D01*
X70000Y252605D01*
X50540D01*
Y258040D01*
X24460D01*
Y233769D01*
X24460Y231960D01*
X24460Y231960D01*
X24920Y229960D01*
X24920D01*
Y209803D01*
X53145D01*
X55596Y205803D01*
X55497Y204800D01*
X100303D01*
X100114Y206719D01*
X98825Y210967D01*
X96732Y214883D01*
X93915Y218315D01*
X93818Y218395D01*
X95250Y222395D01*
X137500D01*
X139468Y222654D01*
X141302Y223414D01*
X142878Y224622D01*
X150378Y232123D01*
X151587Y233698D01*
X151902Y234458D01*
X152347Y235532D01*
X152606Y237501D01*
Y295239D01*
X152347Y297208D01*
X151587Y299042D01*
X150378Y300617D01*
X138605Y312390D01*
Y349597D01*
X140207Y351684D01*
X141269Y354249D01*
X141631Y357000D01*
X141269Y359752D01*
X140207Y362315D01*
X138605Y364403D01*
Y403290D01*
X139230Y403770D01*
X151281Y415821D01*
X599624D01*
X679910Y335534D01*
Y332701D01*
X678295Y329370D01*
X675910Y329370D01*
X656705D01*
Y311590D01*
X670307D01*
X679510Y302387D01*
X677350Y298890D01*
X656705D01*
Y295648D01*
X634003D01*
X633962Y295783D01*
X632566Y298396D01*
X630686Y300686D01*
X628396Y302566D01*
X625783Y303962D01*
X622948Y304822D01*
X620000Y305113D01*
X617052Y304822D01*
X614217Y303962D01*
X611604Y302566D01*
X609314Y300686D01*
X607434Y298396D01*
X606038Y295783D01*
X605997Y295648D01*
X537500D01*
X535338Y295219D01*
X533506Y293994D01*
X533506Y293994D01*
X521006Y281494D01*
X519781Y279662D01*
X519351Y277500D01*
X519352Y277500D01*
Y230642D01*
X515656Y229111D01*
X514584Y230184D01*
X512917Y231298D01*
X510950Y231689D01*
X506600D01*
Y232590D01*
X499199D01*
Y240960D01*
X513640D01*
Y269040D01*
X485560D01*
Y240960D01*
X488921D01*
Y232590D01*
X481520D01*
Y232189D01*
X470079D01*
X436134Y266134D01*
X434467Y267248D01*
X432500Y267639D01*
X420561D01*
X420378Y267878D01*
X418802Y269086D01*
X416968Y269846D01*
X415000Y270105D01*
X413032Y269846D01*
X411198Y269086D01*
X409622Y267878D01*
X408414Y266303D01*
X407654Y264468D01*
X407395Y262500D01*
X407654Y260532D01*
X408414Y258697D01*
X409622Y257122D01*
X409861Y256939D01*
Y239130D01*
X404205Y239130D01*
X403318Y240440D01*
X396550D01*
Y242940D01*
X394050D01*
Y255480D01*
X393390D01*
X391010Y255480D01*
X387010Y255480D01*
X386350D01*
Y242940D01*
X381350D01*
Y255480D01*
X378310D01*
X374310Y255480D01*
X369050D01*
X367692Y259480D01*
X367877Y259622D01*
X369085Y261197D01*
X369845Y263031D01*
X370104Y265000D01*
X369845Y266968D01*
X369085Y268802D01*
X367877Y270377D01*
X366302Y271586D01*
X364468Y272345D01*
X362499Y272605D01*
X362201Y272565D01*
X346132Y288634D01*
X344465Y289748D01*
X342499Y290139D01*
X301658D01*
X301462Y290783D01*
X300066Y293396D01*
X298186Y295686D01*
X295896Y297566D01*
X293283Y298962D01*
X290448Y299822D01*
X287500Y300113D01*
X284552Y299822D01*
X281717Y298962D01*
X281122Y298645D01*
X268634Y311134D01*
X266966Y312248D01*
X265000Y312639D01*
X251630D01*
Y318295D01*
X250309D01*
X248799Y321470D01*
X251038Y324898D01*
X267980D01*
Y335978D01*
X267980D01*
Y337598D01*
X267980D01*
Y346298D01*
X267980Y348678D01*
X267980Y352678D01*
X267980Y361378D01*
X267980Y365378D01*
Y374078D01*
X266861D01*
X264748Y378033D01*
X265139Y380000D01*
Y384439D01*
X265378Y384622D01*
X266586Y386198D01*
X267346Y388032D01*
X267605Y390000D01*
X267346Y391968D01*
X266586Y393802D01*
X265378Y395378D01*
X263803Y396586D01*
X261968Y397346D01*
X260000Y397605D01*
X258032Y397346D01*
X256197Y396586D01*
X255630Y396151D01*
X252307Y397343D01*
X251630Y397917D01*
Y401459D01*
X233850D01*
Y379869D01*
X245429D01*
X247860Y376007D01*
X246789Y374078D01*
X242900D01*
Y365378D01*
X242900Y362998D01*
X242900Y358998D01*
X242900Y350298D01*
X239737Y348277D01*
X231490D01*
X220296Y359472D01*
X218629Y360586D01*
X216662Y360977D01*
X215263D01*
X212100Y362998D01*
X212100Y365378D01*
Y366038D01*
X199560D01*
X187020D01*
Y365378D01*
X187020Y362998D01*
X187020Y358998D01*
Y350298D01*
X187020D01*
Y348678D01*
X187020D01*
Y337598D01*
X187020D01*
Y335978D01*
X187020D01*
Y324898D01*
X187020D01*
X189628Y321824D01*
X189622Y317878D01*
X188414Y316303D01*
X187654Y314468D01*
X187395Y312500D01*
X187654Y310532D01*
X188414Y308697D01*
X189622Y307122D01*
X191197Y305914D01*
X193032Y305154D01*
X195000Y304895D01*
X196968Y305154D01*
X198803Y305914D01*
X199370Y306349D01*
X202693Y305157D01*
X203370Y304583D01*
Y297295D01*
X203370Y296705D01*
Y293295D01*
X203370Y292705D01*
Y285000D01*
X221150D01*
Y292705D01*
X221150Y293295D01*
Y296705D01*
X221150Y297295D01*
Y318295D01*
X221150D01*
X220246Y320478D01*
X224984Y325216D01*
X229614Y325619D01*
X234754Y320478D01*
X233850Y318295D01*
X233850D01*
Y296705D01*
X233850D01*
Y293295D01*
X233850D01*
Y271705D01*
X251630D01*
Y293295D01*
X251630D01*
Y296705D01*
X251630D01*
Y302361D01*
X262871D01*
X273855Y291378D01*
X273538Y290783D01*
X272678Y287948D01*
X272387Y285000D01*
X272678Y282052D01*
X273538Y279217D01*
X274934Y276604D01*
X276814Y274314D01*
X279104Y272434D01*
X281717Y271038D01*
X284552Y270178D01*
X287500Y269887D01*
X290448Y270178D01*
X293283Y271038D01*
X295896Y272434D01*
X298186Y274314D01*
X300066Y276604D01*
X301462Y279217D01*
X301658Y279861D01*
X340370D01*
X354934Y265298D01*
X354894Y265000D01*
X355153Y263031D01*
X355913Y261197D01*
X357122Y259622D01*
X357307Y259480D01*
X355949Y255480D01*
X352910D01*
Y242254D01*
X350795Y239130D01*
X345139D01*
Y245789D01*
X345378Y245972D01*
X346586Y247547D01*
X347346Y249382D01*
X347605Y251350D01*
X347346Y253318D01*
X346586Y255152D01*
X345378Y256728D01*
X343802Y257936D01*
X341968Y258696D01*
X340000Y258955D01*
X338032Y258696D01*
X336198Y257936D01*
X334622Y256728D01*
X333414Y255152D01*
X332654Y253318D01*
X332395Y251350D01*
X332654Y249382D01*
X333414Y247547D01*
X334622Y245972D01*
X334861Y245789D01*
Y239130D01*
X329205D01*
Y221350D01*
X350571D01*
X353241Y218363D01*
X343528Y208650D01*
X329205D01*
Y190870D01*
X343528D01*
X350531Y183866D01*
X352198Y182752D01*
X352910Y182611D01*
X352910Y174520D01*
X349478Y173148D01*
X312500D01*
X312500Y173148D01*
X310338Y172719D01*
X308506Y171494D01*
X306006Y168994D01*
X304781Y167162D01*
X304351Y165000D01*
X304352Y165000D01*
Y160964D01*
X300352Y159962D01*
X300066Y160496D01*
X298186Y162786D01*
X295896Y164666D01*
X293283Y166062D01*
X290448Y166922D01*
X287500Y167213D01*
X284552Y166922D01*
X281717Y166062D01*
X279104Y164666D01*
X276814Y162786D01*
X274934Y160496D01*
X273538Y157883D01*
X273497Y157749D01*
X269339D01*
X265795Y158850D01*
X265795Y161749D01*
Y165240D01*
X255000D01*
X244205D01*
Y161749D01*
X244205Y158850D01*
X240661Y157749D01*
X225144D01*
X223487Y161749D01*
X225344Y163606D01*
X225344Y163606D01*
X226184Y164863D01*
X226740Y165590D01*
X229226Y167775D01*
X230826Y167900D01*
X239590D01*
Y192980D01*
X230890D01*
X228510Y192980D01*
X224510Y192980D01*
X218190D01*
X215810Y192980D01*
Y192980D01*
X214190D01*
Y192980D01*
X211150D01*
Y180440D01*
X206150D01*
Y192980D01*
X203110D01*
Y192980D01*
X201490D01*
Y192980D01*
X198450D01*
Y180440D01*
X195950D01*
Y177940D01*
X190410D01*
Y167900D01*
X190410D01*
X191072Y163900D01*
X187438Y160266D01*
X182565Y160897D01*
X180686Y163187D01*
X178395Y165067D01*
X175783Y166463D01*
X172948Y167323D01*
X169999Y167614D01*
X167051Y167323D01*
X164216Y166463D01*
X161603Y165067D01*
X159313Y163187D01*
X157433Y160897D01*
X156037Y158284D01*
X155996Y158149D01*
X145001D01*
X145001Y158149D01*
X142839Y157719D01*
X141007Y156495D01*
X141007Y156495D01*
X136006Y151494D01*
X134782Y149662D01*
X134352Y147500D01*
X134352Y147500D01*
Y126630D01*
X129205D01*
Y123141D01*
X125205Y122139D01*
X124219Y123984D01*
X122152Y126502D01*
X119634Y128569D01*
X116760Y130105D01*
X113642Y131051D01*
X112900Y131124D01*
Y114750D01*
Y98376D01*
X113642Y98449D01*
X116760Y99395D01*
X119634Y100931D01*
X122152Y102998D01*
X124219Y105516D01*
X125553Y108011D01*
X128853Y108769D01*
X129514Y108850D01*
X130075Y108850D01*
X150795D01*
Y126630D01*
X145649D01*
Y145160D01*
X147340Y146852D01*
X155996D01*
X156037Y146717D01*
X157433Y144105D01*
X159313Y141814D01*
X161603Y139935D01*
X164216Y138538D01*
X167051Y137678D01*
X169999Y137388D01*
X172948Y137678D01*
X175783Y138538D01*
X178395Y139935D01*
X180686Y141814D01*
X182565Y144105D01*
X183492Y145838D01*
X187251Y146342D01*
X187772Y146282D01*
X188790Y145398D01*
X190301Y143450D01*
X190301Y143450D01*
Y124560D01*
X190410Y124014D01*
Y112020D01*
X201490D01*
X203001Y108646D01*
Y106087D01*
X202189Y105028D01*
X201429Y103193D01*
X201170Y101225D01*
X201429Y99257D01*
X202189Y97423D01*
X203397Y95848D01*
X204972Y94639D01*
X206807Y93879D01*
X208775Y93620D01*
X210743Y93879D01*
X212578Y94639D01*
X214153Y95848D01*
X215361Y97423D01*
X216121Y99257D01*
X216380Y101225D01*
X216121Y103193D01*
X215361Y105028D01*
X214298Y106412D01*
Y108646D01*
X215810Y112020D01*
X226890D01*
Y112020D01*
X228510D01*
Y112020D01*
X239590D01*
Y125109D01*
X243494Y128488D01*
X244205Y128370D01*
X244205Y128370D01*
X244205Y128370D01*
X265795D01*
Y146150D01*
X269670Y146452D01*
X273497D01*
X273538Y146317D01*
X274934Y143704D01*
X276814Y141414D01*
X279104Y139534D01*
X281717Y138138D01*
X284552Y137278D01*
X287500Y136987D01*
X290448Y137278D01*
X293283Y138138D01*
X295896Y139534D01*
X298186Y141414D01*
X300066Y143704D01*
X301462Y146317D01*
X301503Y146452D01*
X306899D01*
X306899Y146452D01*
X309061Y146882D01*
X310893Y148106D01*
X313994Y151207D01*
X313994Y151207D01*
X315219Y153039D01*
X315648Y155201D01*
Y161852D01*
X377500D01*
X377500Y161851D01*
X379662Y162281D01*
X381494Y163506D01*
X387844Y169856D01*
X387844Y169856D01*
X388878Y171403D01*
X389087Y171709D01*
X391295Y174159D01*
X393400Y174520D01*
X394050D01*
Y187060D01*
Y199600D01*
X393390D01*
X391010Y199600D01*
X387010Y199600D01*
X379550D01*
X377397Y203144D01*
X377427Y203295D01*
X377736Y203697D01*
X378496Y205532D01*
X378755Y207500D01*
X378496Y209468D01*
X377736Y211303D01*
X376528Y212878D01*
X375897Y213361D01*
X377008Y217361D01*
X387872D01*
X393866Y211366D01*
X395533Y210252D01*
X397500Y209861D01*
X400707D01*
X404205Y208650D01*
X404205Y202724D01*
X402090Y199600D01*
X400205Y199600D01*
X399050D01*
Y189560D01*
X403318D01*
X404205Y190870D01*
X406090Y190870D01*
X412500D01*
Y199760D01*
X415000D01*
Y202260D01*
X425795D01*
Y205862D01*
X429795Y206864D01*
X429934Y206604D01*
X431814Y204314D01*
X434104Y202434D01*
X436717Y201038D01*
X439552Y200178D01*
X442500Y199887D01*
X445448Y200178D01*
X448283Y201038D01*
X450896Y202434D01*
X453186Y204314D01*
X455066Y206604D01*
X456460Y209211D01*
X478357D01*
X481520Y207190D01*
X481520Y204810D01*
X481520Y196110D01*
X481520Y192110D01*
Y191450D01*
X494060D01*
X506600D01*
Y192110D01*
X506600Y194490D01*
X509763Y196511D01*
X511222D01*
X517361Y190371D01*
Y181793D01*
X516150Y178295D01*
X513361Y178295D01*
X509760D01*
Y167500D01*
Y156705D01*
X513361D01*
X516150Y156705D01*
X517361Y153207D01*
Y149760D01*
X517752Y147794D01*
X518866Y146126D01*
X533703Y131290D01*
X532630Y127290D01*
X527060D01*
Y102210D01*
X552140D01*
Y103143D01*
X556140Y104800D01*
X558730Y102210D01*
X562500D01*
Y114750D01*
Y127290D01*
X558730D01*
X556140Y124700D01*
X552140Y126357D01*
Y127290D01*
X544739D01*
Y132660D01*
X544348Y134627D01*
X543234Y136294D01*
X527639Y151889D01*
Y153207D01*
X528850Y156705D01*
X546630D01*
Y178295D01*
X546491D01*
X545997Y179410D01*
X548599Y183410D01*
X549394D01*
X549940Y183302D01*
X568710D01*
X598666Y153346D01*
X598666Y153346D01*
X600498Y152121D01*
X602660Y151691D01*
X602660Y151692D01*
X606050D01*
X607433Y149103D01*
X609313Y146813D01*
X611603Y144933D01*
X614216Y143537D01*
X617051Y142677D01*
X619999Y142386D01*
X622948Y142677D01*
X625783Y143537D01*
X628395Y144933D01*
X630686Y146813D01*
X632565Y149103D01*
X633949Y151692D01*
X654205D01*
Y148450D01*
X675795D01*
Y166230D01*
X654205D01*
Y162988D01*
X634051D01*
X633962Y163283D01*
X632565Y165895D01*
X630686Y168186D01*
X628395Y170065D01*
X625783Y171462D01*
X622948Y172322D01*
X619999Y172612D01*
X617051Y172322D01*
X614216Y171462D01*
X611603Y170065D01*
X609313Y168186D01*
X607576Y166069D01*
X607370Y165889D01*
X602617Y165371D01*
X575987Y192001D01*
X577227Y195723D01*
X577280Y195790D01*
X581221Y195777D01*
X582483Y194133D01*
X584684Y192443D01*
X587248Y191381D01*
X590000Y191019D01*
X592752Y191381D01*
X595315Y192443D01*
X597517Y194133D01*
X598951Y196001D01*
X679910D01*
Y185080D01*
X679959Y184834D01*
X679958Y184584D01*
X680368Y182484D01*
X680467Y182243D01*
X680517Y181989D01*
X680657Y181781D01*
X680752Y181549D01*
X680935Y181365D01*
X681079Y181149D01*
X681287Y181010D01*
X681464Y180832D01*
X681703Y180732D01*
X681919Y180587D01*
X682165Y180539D01*
X682396Y180442D01*
X682655Y180441D01*
X682910Y180390D01*
Y157900D01*
X693990D01*
Y157900D01*
X695610D01*
Y157900D01*
X706690D01*
Y157900D01*
X708310D01*
Y157900D01*
X719390D01*
Y157900D01*
X721010D01*
Y157900D01*
X729500D01*
X729552Y157639D01*
X729554Y157373D01*
X729650Y157148D01*
X729697Y156909D01*
X729845Y156688D01*
X729949Y156443D01*
X730123Y156272D01*
X730259Y156069D01*
X730480Y155921D01*
X730670Y155735D01*
X730896Y155643D01*
X731099Y155507D01*
X731360Y155456D01*
X731606Y155356D01*
X733711Y154956D01*
X733955Y154958D01*
X734194Y154910D01*
X760000D01*
X760991Y155107D01*
X761831Y155669D01*
X762393Y156509D01*
X762590Y157500D01*
Y224910D01*
X826368D01*
X826848Y225006D01*
X827329Y225095D01*
X827343Y225104D01*
X827359Y225107D01*
X827766Y225379D01*
X828176Y225646D01*
X828186Y225660D01*
X828199Y225669D01*
X828471Y226076D01*
X828748Y226479D01*
X830602Y228546D01*
X833591Y227856D01*
X834062Y227714D01*
X837500Y227375D01*
X840938Y227714D01*
X841409Y227856D01*
X844398Y228546D01*
X846252Y226479D01*
X846529Y226076D01*
X846801Y225669D01*
X846814Y225660D01*
X846824Y225646D01*
X847234Y225379D01*
X847641Y225107D01*
X847657Y225104D01*
X847671Y225095D01*
X848152Y225006D01*
X848632Y224910D01*
X867500D01*
X868491Y225107D01*
X869331Y225669D01*
X869893Y226509D01*
X870090Y227500D01*
Y250881D01*
X870035Y251158D01*
X870029Y251440D01*
X869569Y253519D01*
X869477Y253728D01*
X869433Y253951D01*
X869276Y254186D01*
X869162Y254444D01*
X868998Y254602D01*
X868871Y254791D01*
X868636Y254948D01*
X868432Y255144D01*
X868220Y255226D01*
X868031Y255353D01*
X867754Y255408D01*
X867491Y255510D01*
X867040Y259444D01*
Y293040D01*
X810442D01*
X810353Y293491D01*
X809791Y294331D01*
X808951Y294893D01*
X807960Y295090D01*
X732198D01*
Y295950D01*
X731769Y298112D01*
X730544Y299944D01*
X730544Y299944D01*
X721494Y308994D01*
X719662Y310219D01*
X717500Y310649D01*
X717500Y310648D01*
X687225D01*
X683983Y313890D01*
X685640Y317890D01*
X732500D01*
X733491Y318087D01*
X734331Y318649D01*
X734893Y319489D01*
X735090Y320480D01*
Y347500D01*
X734893Y348491D01*
X734331Y349331D01*
X733491Y349893D01*
X732500Y350090D01*
X698276D01*
X615975Y432391D01*
X617632Y436391D01*
X935869D01*
X936081Y432391D01*
D02*
G37*
G36*
X807960Y275500D02*
X837500D01*
Y270500D01*
X807960D01*
Y252960D01*
X812460D01*
Y245500D01*
X837500D01*
X862540D01*
Y252960D01*
X867040D01*
X867500Y250881D01*
Y227500D01*
X848632D01*
X847658Y229770D01*
X848315Y230460D01*
X862540D01*
Y240500D01*
X837500D01*
X812460D01*
Y230460D01*
X826685D01*
X827342Y229770D01*
X826368Y227500D01*
X760000D01*
Y157500D01*
X734194D01*
X732090Y157900D01*
X732090Y159770D01*
Y167940D01*
X726550D01*
Y170440D01*
X724050D01*
Y182980D01*
X721660D01*
X721010Y182980D01*
X719390D01*
X718740Y182980D01*
X716350D01*
Y170440D01*
X711350D01*
Y182980D01*
X708960D01*
X708310Y182980D01*
X706690D01*
X706040Y182980D01*
X703650D01*
Y170440D01*
X698650D01*
Y182980D01*
X696260D01*
X695610Y182980D01*
X693990D01*
X693340Y182980D01*
X690950D01*
Y170440D01*
X685950D01*
Y182980D01*
X682910D01*
X682500Y185080D01*
Y262420D01*
X682910Y264520D01*
X684770Y264520D01*
X685950D01*
Y277060D01*
X690950D01*
Y264520D01*
X693340D01*
X693990Y264520D01*
X695610D01*
X696260Y264520D01*
X698650D01*
Y277060D01*
X703650D01*
Y264520D01*
X706040D01*
X706690Y264520D01*
X708310D01*
X708960Y264520D01*
X711350D01*
Y277060D01*
X716350D01*
Y264520D01*
X718740D01*
X719390Y264520D01*
X721010D01*
X721660Y264520D01*
X732090D01*
Y276514D01*
X732198Y277060D01*
Y292500D01*
X807960D01*
Y275500D01*
D02*
G37*
%LPC*%
G36*
X108500Y422302D02*
X108249Y422269D01*
X105684Y421207D01*
X103483Y419517D01*
X101793Y417315D01*
X100731Y414752D01*
X100698Y414500D01*
X108500D01*
Y422302D01*
D02*
G37*
G36*
Y409500D02*
X100698D01*
X100731Y409249D01*
X101793Y406684D01*
X103483Y404483D01*
X105684Y402793D01*
X108249Y401731D01*
X108500Y401698D01*
Y409500D01*
D02*
G37*
G36*
X221150Y401459D02*
X214760D01*
Y393164D01*
X221150D01*
Y401459D01*
D02*
G37*
G36*
X209760D02*
X203370D01*
Y393164D01*
X209760D01*
Y401459D01*
D02*
G37*
G36*
X221150Y388164D02*
X214760D01*
Y379869D01*
X221150D01*
Y388164D01*
D02*
G37*
G36*
X209760D02*
X203370D01*
Y379869D01*
X209760D01*
Y388164D01*
D02*
G37*
G36*
X212100Y374078D02*
X202060D01*
Y371038D01*
X212100D01*
Y374078D01*
D02*
G37*
G36*
X197060D02*
X187020D01*
Y371038D01*
X197060D01*
Y374078D01*
D02*
G37*
G36*
X108500Y367302D02*
X108249Y367269D01*
X105684Y366207D01*
X103483Y364517D01*
X101793Y362315D01*
X100731Y359752D01*
X100698Y359500D01*
X108500D01*
Y367302D01*
D02*
G37*
G36*
X929600Y392804D02*
X927288Y392500D01*
X917460D01*
Y376230D01*
X936230Y357460D01*
X952500D01*
Y367288D01*
X952804Y369600D01*
X952500Y371912D01*
Y392500D01*
X931912D01*
X929600Y392804D01*
D02*
G37*
G36*
X70400Y392804D02*
X68088Y392500D01*
X47500D01*
Y357460D01*
X63770D01*
X82540Y376230D01*
Y392500D01*
X72712D01*
X70400Y392804D01*
D02*
G37*
G36*
X108500Y354500D02*
X100698D01*
X100731Y354249D01*
X101793Y351684D01*
X103483Y349483D01*
X105684Y347793D01*
X108249Y346731D01*
X108500Y346698D01*
Y354500D01*
D02*
G37*
G36*
X80400Y345103D02*
Y325200D01*
X100303D01*
X100114Y327119D01*
X98825Y331367D01*
X96732Y335283D01*
X93915Y338715D01*
X90483Y341532D01*
X86567Y343625D01*
X82319Y344914D01*
X80400Y345103D01*
D02*
G37*
G36*
X75400D02*
X73481Y344914D01*
X69233Y343625D01*
X65317Y341532D01*
X61885Y338715D01*
X59068Y335283D01*
X56975Y331367D01*
X55686Y327119D01*
X55497Y325200D01*
X75400D01*
Y345103D01*
D02*
G37*
G36*
X100303Y320200D02*
X80400D01*
Y300297D01*
X82319Y300486D01*
X86567Y301775D01*
X90483Y303868D01*
X93915Y306685D01*
X96732Y310117D01*
X98825Y314033D01*
X100114Y318281D01*
X100303Y320200D01*
D02*
G37*
G36*
X75400D02*
X55497D01*
X55686Y318281D01*
X56975Y314033D01*
X59068Y310117D01*
X61885Y306685D01*
X65317Y303868D01*
X69233Y301775D01*
X73481Y300486D01*
X75400Y300297D01*
Y320200D01*
D02*
G37*
G36*
X44020Y293040D02*
X40000D01*
Y282500D01*
X50540D01*
Y286520D01*
X44020Y293040D01*
D02*
G37*
G36*
X35000D02*
X30980D01*
X24460Y286520D01*
Y282500D01*
X35000D01*
Y293040D01*
D02*
G37*
G36*
X221150Y280000D02*
X214760D01*
Y271705D01*
X221150D01*
Y280000D01*
D02*
G37*
G36*
X209760D02*
X203370D01*
Y271705D01*
X209760D01*
Y280000D01*
D02*
G37*
G36*
X50540Y277500D02*
X40000D01*
Y266960D01*
X44020D01*
X50540Y273480D01*
Y277500D01*
D02*
G37*
G36*
X35000D02*
X24460D01*
Y273480D01*
X30980Y266960D01*
X35000D01*
Y277500D01*
D02*
G37*
G36*
X399050Y255480D02*
Y245440D01*
X402090D01*
Y255480D01*
X399050D01*
D02*
G37*
G36*
X965540Y250540D02*
X955000D01*
Y240000D01*
X965540D01*
Y250540D01*
D02*
G37*
G36*
X950000D02*
X939460D01*
Y240000D01*
X950000D01*
Y250540D01*
D02*
G37*
G36*
X965540Y235000D02*
X955000D01*
Y224460D01*
X965540D01*
Y235000D01*
D02*
G37*
G36*
X950000D02*
X939460D01*
Y224460D01*
X950000D01*
Y235000D01*
D02*
G37*
G36*
X959020Y215540D02*
X945980D01*
X940545Y210105D01*
X925000D01*
X923032Y209846D01*
X921957Y209401D01*
X921198Y209086D01*
X919622Y207878D01*
X914350Y202605D01*
X870090D01*
Y212500D01*
X869893Y213491D01*
X869331Y214331D01*
X868491Y214893D01*
X867500Y215090D01*
X810000D01*
X809009Y214893D01*
X808169Y214331D01*
X807607Y213491D01*
X807410Y212500D01*
Y100850D01*
X807607Y99859D01*
X808169Y99019D01*
X809009Y98457D01*
X810000Y98260D01*
X895000D01*
X895991Y98457D01*
X896831Y99019D01*
X897393Y99859D01*
X897590Y100850D01*
Y128227D01*
X898850Y131705D01*
X901590Y131705D01*
X905240D01*
Y142500D01*
Y153295D01*
X901590D01*
X898850Y153295D01*
X897590Y156773D01*
Y157340D01*
X897393Y158331D01*
X896831Y159171D01*
X895991Y159733D01*
X895000Y159930D01*
X870090D01*
Y187395D01*
X917500D01*
X919468Y187654D01*
X921302Y188414D01*
X922878Y189622D01*
X928150Y194895D01*
X940545D01*
X944894Y190545D01*
Y175490D01*
X944103Y175067D01*
X941813Y173187D01*
X939933Y170897D01*
X938537Y168284D01*
X937677Y165449D01*
X937386Y162501D01*
X937677Y159552D01*
X938537Y156717D01*
X939933Y154105D01*
X941813Y151814D01*
X944103Y149935D01*
X946716Y148538D01*
X949551Y147678D01*
X952499Y147388D01*
X955447Y147678D01*
X958283Y148538D01*
X960895Y149935D01*
X963186Y151814D01*
X965065Y154105D01*
X966462Y156717D01*
X967322Y159552D01*
X967612Y162501D01*
X967322Y165449D01*
X966462Y168284D01*
X965065Y170897D01*
X963186Y173187D01*
X960895Y175067D01*
X960105Y175489D01*
Y190545D01*
X965540Y195980D01*
Y209020D01*
X959020Y215540D01*
D02*
G37*
G36*
X425795Y197260D02*
X417500D01*
Y190870D01*
X425795D01*
Y197260D01*
D02*
G37*
G36*
X506600Y186450D02*
X496560D01*
Y183410D01*
X506600D01*
Y186450D01*
D02*
G37*
G36*
X491560D02*
X481520D01*
Y183410D01*
X491560D01*
Y186450D01*
D02*
G37*
G36*
X193450Y192980D02*
X190410D01*
Y182940D01*
X193450D01*
Y192980D01*
D02*
G37*
G36*
X100303Y199800D02*
X80400D01*
Y179897D01*
X82319Y180086D01*
X86567Y181375D01*
X90483Y183468D01*
X93915Y186285D01*
X96732Y189717D01*
X98825Y193633D01*
X100114Y197881D01*
X100303Y199800D01*
D02*
G37*
G36*
X75400D02*
X55497D01*
X55686Y197881D01*
X56975Y193633D01*
X59068Y189717D01*
X61885Y186285D01*
X65317Y183468D01*
X69233Y181375D01*
X73481Y180086D01*
X75400Y179897D01*
Y199800D01*
D02*
G37*
G36*
X402090Y184560D02*
X399050D01*
Y174520D01*
X402090D01*
Y184560D01*
D02*
G37*
G36*
X265795Y176630D02*
X257500D01*
Y170240D01*
X265795D01*
Y176630D01*
D02*
G37*
G36*
X252500D02*
X244205D01*
Y170240D01*
X252500D01*
Y176630D01*
D02*
G37*
G36*
X504760Y178295D02*
X498370D01*
Y170000D01*
X504760D01*
Y178295D01*
D02*
G37*
G36*
Y165000D02*
X498370D01*
Y156705D01*
X504760D01*
Y165000D01*
D02*
G37*
G36*
X70400Y169859D02*
X68301Y169583D01*
X66345Y168773D01*
X64666Y167484D01*
X63377Y165805D01*
X62567Y163849D01*
X62291Y161750D01*
X62567Y159651D01*
X63377Y157695D01*
X64666Y156016D01*
X66345Y154727D01*
X68301Y153917D01*
X70400Y153641D01*
X72499Y153917D01*
X74455Y154727D01*
X76134Y156016D01*
X77423Y157695D01*
X78233Y159651D01*
X78509Y161750D01*
X78233Y163849D01*
X77423Y165805D01*
X76134Y167484D01*
X74455Y168773D01*
X72499Y169583D01*
X70400Y169859D01*
D02*
G37*
G36*
X720000Y145649D02*
X720000Y145648D01*
X680045D01*
X680045Y145649D01*
X677883Y145219D01*
X676051Y143994D01*
X676051Y143994D01*
X667807Y135750D01*
X654205D01*
Y117970D01*
X675795D01*
Y127762D01*
X682385Y134352D01*
X717660D01*
X720901Y131110D01*
Y130474D01*
X719390Y127100D01*
X716901Y127100D01*
X716350D01*
Y114560D01*
Y102020D01*
X719390D01*
X723390Y102020D01*
X732090D01*
Y114014D01*
X732198Y114560D01*
Y133450D01*
X732199Y133450D01*
X731769Y135612D01*
X730544Y137444D01*
X730544Y137444D01*
X723994Y143994D01*
X722162Y145219D01*
X720000Y145649D01*
D02*
G37*
G36*
X910240Y153295D02*
Y145000D01*
X916630D01*
Y153295D01*
X910240D01*
D02*
G37*
G36*
X916630Y140000D02*
X910240D01*
Y131705D01*
X916630D01*
Y140000D01*
D02*
G37*
G36*
X708310Y127100D02*
X704310Y127100D01*
X703650D01*
Y114560D01*
Y102020D01*
X706690D01*
X710690Y102020D01*
X711350D01*
Y114560D01*
Y127100D01*
X708310D01*
D02*
G37*
G36*
X571270Y127290D02*
X567500D01*
Y117250D01*
X577540D01*
Y121020D01*
X571270Y127290D01*
D02*
G37*
G36*
X685950Y127100D02*
X682910D01*
Y117060D01*
X685950D01*
Y127100D01*
D02*
G37*
G36*
X935400Y123810D02*
Y115000D01*
X944210D01*
X944143Y115513D01*
X942980Y118320D01*
X941130Y120730D01*
X938720Y122580D01*
X935912Y123743D01*
X935400Y123810D01*
D02*
G37*
G36*
X930400Y123810D02*
X929887Y123743D01*
X927080Y122580D01*
X924670Y120730D01*
X922820Y118320D01*
X921657Y115513D01*
X921590Y115000D01*
X930400D01*
Y123810D01*
D02*
G37*
G36*
X577540Y112250D02*
X567500D01*
Y102210D01*
X571270D01*
X577540Y108480D01*
Y112250D01*
D02*
G37*
G36*
X695610Y127100D02*
X691610Y127100D01*
X690950D01*
Y114560D01*
Y102020D01*
X691610D01*
X693990Y102020D01*
X697990Y102020D01*
X698650D01*
Y114560D01*
Y127100D01*
X695610D01*
D02*
G37*
G36*
X685950Y112060D02*
X682910D01*
Y102020D01*
X685950D01*
Y112060D01*
D02*
G37*
G36*
X930400Y110000D02*
X921590D01*
X921657Y109487D01*
X922820Y106680D01*
X924670Y104270D01*
X927080Y102420D01*
X929887Y101257D01*
X930400Y101190D01*
Y110000D01*
D02*
G37*
G36*
X944210D02*
X935400D01*
Y101190D01*
X935912Y101257D01*
X938720Y102420D01*
X941130Y104270D01*
X942980Y106680D01*
X944143Y109487D01*
X944210Y110000D01*
D02*
G37*
G36*
X332040Y60390D02*
X307960D01*
Y56519D01*
X303295D01*
Y59130D01*
X281705D01*
Y41350D01*
X303295D01*
Y45222D01*
X307960D01*
Y42610D01*
X332040D01*
Y60390D01*
D02*
G37*
G36*
X952500Y82540D02*
X936230D01*
X917460Y63770D01*
Y47500D01*
X927288D01*
X929600Y47196D01*
X931912Y47500D01*
X952500D01*
Y68088D01*
X952804Y70400D01*
X952500Y72712D01*
Y82540D01*
D02*
G37*
G36*
X372499Y42614D02*
X369551Y42323D01*
X366716Y41463D01*
X364103Y40067D01*
X361813Y38187D01*
X359933Y35897D01*
X358537Y33284D01*
X358496Y33149D01*
X352501D01*
X352501Y33149D01*
X350339Y32719D01*
X348507Y31495D01*
X348507Y31495D01*
X341160Y24148D01*
X332040D01*
Y27390D01*
X307960D01*
Y9610D01*
X332040D01*
Y12852D01*
X343500D01*
X343500Y12852D01*
X345662Y13282D01*
X347494Y14506D01*
X354776Y21788D01*
X355301Y21778D01*
X358676Y21456D01*
X359933Y19105D01*
X361813Y16815D01*
X364103Y14935D01*
X366716Y13538D01*
X369551Y12678D01*
X372499Y12388D01*
X375448Y12678D01*
X378283Y13538D01*
X380895Y14935D01*
X383186Y16815D01*
X385065Y19105D01*
X386462Y21717D01*
X387322Y24553D01*
X387612Y27501D01*
X387322Y30449D01*
X386462Y33284D01*
X385065Y35897D01*
X383186Y38187D01*
X380895Y40067D01*
X378283Y41463D01*
X375448Y42323D01*
X372499Y42614D01*
D02*
G37*
G36*
X232499Y42367D02*
Y30001D01*
X244866D01*
X244822Y30449D01*
X243962Y33284D01*
X242565Y35897D01*
X240686Y38187D01*
X238395Y40067D01*
X235783Y41463D01*
X232948Y42323D01*
X232499Y42367D01*
D02*
G37*
G36*
X227499D02*
X227051Y42323D01*
X224216Y41463D01*
X221603Y40067D01*
X219313Y38187D01*
X217433Y35897D01*
X216037Y33284D01*
X215177Y30449D01*
X215133Y30001D01*
X227499D01*
Y42367D01*
D02*
G37*
G36*
X150795Y96150D02*
X129205D01*
Y78370D01*
X129205D01*
X131350Y75795D01*
Y54205D01*
X131350D01*
Y50795D01*
X131350D01*
Y29205D01*
X149130D01*
Y50795D01*
X149130D01*
Y54205D01*
X149130D01*
Y75795D01*
X150795Y78370D01*
X150795D01*
Y96150D01*
D02*
G37*
G36*
X303295Y28650D02*
X295000D01*
Y22260D01*
X303295D01*
Y28650D01*
D02*
G37*
G36*
X290000D02*
X281705D01*
Y22260D01*
X290000D01*
Y28650D01*
D02*
G37*
G36*
X244866Y25001D02*
X232499D01*
Y12634D01*
X232948Y12678D01*
X235783Y13538D01*
X238395Y14935D01*
X240686Y16815D01*
X242565Y19105D01*
X243962Y21717D01*
X244822Y24553D01*
X244866Y25001D01*
D02*
G37*
G36*
X227499D02*
X215133D01*
X215177Y24553D01*
X216037Y21717D01*
X217433Y19105D01*
X219313Y16815D01*
X221603Y14935D01*
X224216Y13538D01*
X227051Y12678D01*
X227499Y12634D01*
Y25001D01*
D02*
G37*
G36*
X303295Y17260D02*
X295000D01*
Y10870D01*
X303295D01*
Y17260D01*
D02*
G37*
G36*
X290000D02*
X281705D01*
Y10870D01*
X290000D01*
Y17260D01*
D02*
G37*
G36*
X744999Y234867D02*
Y222501D01*
X757366D01*
X757321Y222949D01*
X756462Y225784D01*
X755065Y228397D01*
X753186Y230687D01*
X750895Y232567D01*
X748283Y233963D01*
X745447Y234823D01*
X744999Y234867D01*
D02*
G37*
G36*
X739999D02*
X739551Y234823D01*
X736716Y233963D01*
X734103Y232567D01*
X731813Y230687D01*
X729933Y228397D01*
X728537Y225784D01*
X727677Y222949D01*
X727633Y222501D01*
X739999D01*
Y234867D01*
D02*
G37*
G36*
X757366Y217501D02*
X744999D01*
Y205134D01*
X745447Y205178D01*
X748283Y206038D01*
X750895Y207435D01*
X753186Y209314D01*
X755065Y211605D01*
X756462Y214217D01*
X757321Y217052D01*
X757366Y217501D01*
D02*
G37*
G36*
X739999D02*
X727633D01*
X727677Y217052D01*
X728537Y214217D01*
X729933Y211605D01*
X731813Y209314D01*
X734103Y207435D01*
X736716Y206038D01*
X739551Y205178D01*
X739999Y205134D01*
Y217501D01*
D02*
G37*
G36*
X729050Y182980D02*
Y172940D01*
X732090D01*
Y182980D01*
X729050D01*
D02*
G37*
%LPD*%
D12*
X415000Y187060D02*
Y199760D01*
X396550Y187060D02*
X415000D01*
X720360Y220001D02*
X742499D01*
X702009Y201650D02*
X720360Y220001D01*
X590000Y201650D02*
X702009D01*
X199560Y390664D02*
X212260D01*
X199560Y368538D02*
Y390664D01*
X212260D02*
Y405000D01*
X383850Y242940D02*
Y321150D01*
X212260Y405000D02*
X216230Y408970D01*
X296030D01*
X383850Y321150D01*
X619999Y157340D02*
X665000D01*
X177500Y202500D02*
Y282500D01*
X212260D01*
X177500Y192661D02*
Y202500D01*
X208650Y101350D02*
Y139571D01*
Y101350D02*
X208775Y101225D01*
X216250Y162500D02*
X221350Y167600D01*
Y180440D01*
X35400Y105750D02*
Y167750D01*
X177500Y282500D02*
Y362500D01*
X189721Y180440D02*
X195950D01*
X177500Y192661D02*
X189721Y180440D01*
X177500Y362500D02*
X183538Y368538D01*
X199560D01*
X570450Y227050D02*
X576960Y220540D01*
X588890D01*
X590000Y221650D01*
X549940Y227050D02*
X570450D01*
X620000Y290000D02*
X667500D01*
X726550Y277060D02*
Y295950D01*
X717500Y305000D02*
X726550Y295950D01*
X684885Y305000D02*
X717500D01*
X669405Y320480D02*
X684885Y305000D01*
X667500Y320480D02*
X669405D01*
X726550Y114560D02*
Y133450D01*
X720000Y140000D02*
X726550Y133450D01*
X680045Y140000D02*
X720000D01*
X666905Y126860D02*
X680045Y140000D01*
X665000Y126860D02*
X666905D01*
X508350Y95000D02*
X561485D01*
X494060Y109290D02*
X508350Y95000D01*
X494060Y109290D02*
Y167500D01*
X561485Y95000D02*
X565000Y98515D01*
X230000Y27500D02*
X252500D01*
X229999Y27501D02*
X230000Y27500D01*
X252500D02*
X260240Y19760D01*
X292500D01*
Y50240D02*
X293130Y50870D01*
X319370D01*
X320000Y51500D01*
X352501Y27501D02*
X372499D01*
X343500Y18500D02*
X352501Y27501D01*
X320000Y18500D02*
X343500D01*
X494060Y167500D02*
Y188950D01*
Y167500D02*
X507260D01*
X565000Y98515D02*
Y114750D01*
X571050Y188950D02*
X602660Y157340D01*
X619999D01*
X549940Y188950D02*
X571050D01*
X549940Y201650D02*
X590000D01*
X537500Y290000D02*
X620000D01*
X525000Y277500D02*
X537500Y290000D01*
X525000Y220000D02*
Y277500D01*
Y220000D02*
X530650Y214350D01*
X549940D01*
Y227050D02*
Y254540D01*
X550400Y255000D01*
X383850Y242940D02*
X396550D01*
X312500Y167500D02*
X377500D01*
X310000Y165000D02*
X312500Y167500D01*
X310000Y155201D02*
Y165000D01*
X306899Y152100D02*
X310000Y155201D01*
X287500Y152100D02*
X306899D01*
X377500Y167500D02*
X383850Y173850D01*
Y187060D01*
X145001Y152501D02*
X169999D01*
X140000Y147500D02*
X145001Y152501D01*
X140000Y117740D02*
Y147500D01*
X140120Y40120D02*
Y87140D01*
X140000Y87260D02*
X140120Y87140D01*
Y40120D02*
X140240Y40000D01*
X97500D02*
X109760D01*
X90000Y47500D02*
X97500Y40000D01*
X90000Y47500D02*
Y72500D01*
X56900Y105600D02*
X90000Y72500D01*
X35550Y105600D02*
X56900D01*
X35400Y105750D02*
X35550Y105600D01*
X90000Y86665D02*
X109760Y66905D01*
Y65000D02*
Y66905D01*
X90000Y86665D02*
Y138350D01*
X110400Y158750D01*
X242740Y137260D02*
X255000D01*
X237500Y142500D02*
X242740Y137260D01*
X211579Y142500D02*
X237500D01*
X208650Y139571D02*
X211579Y142500D01*
X204600Y152100D02*
X287500D01*
X195950Y143450D02*
X204600Y152100D01*
X195950Y124560D02*
Y143450D01*
X197660Y162500D02*
X216250D01*
X187661Y152501D02*
X197660Y162500D01*
X169999Y152501D02*
X187661D01*
X255000Y167740D02*
Y192000D01*
X245850Y201150D02*
X255000Y192000D01*
X212260Y201150D02*
X245850D01*
X208650Y197540D02*
X212260Y201150D01*
X208650Y180440D02*
Y197540D01*
X195950Y180440D02*
X208650D01*
D15*
X30000Y224880D02*
X36665D01*
X33332D01*
Y214883D01*
X44995Y224880D02*
X41663D01*
X39997Y223214D01*
Y216549D01*
X41663Y214883D01*
X44995D01*
X46661Y216549D01*
Y223214D01*
X44995Y224880D01*
X49994Y214883D02*
Y224880D01*
X54992D01*
X56658Y223214D01*
Y219881D01*
X54992Y218215D01*
X49994D01*
D18*
X837500Y167930D02*
D03*
Y272070D02*
D03*
D19*
Y254000D02*
D03*
Y186000D02*
D03*
D20*
Y273000D02*
D03*
Y167000D02*
D03*
D21*
Y197000D02*
D03*
Y243000D02*
D03*
D22*
X292500Y50240D02*
D03*
Y19760D02*
D03*
X667500Y320480D02*
D03*
Y290000D02*
D03*
X665000Y126860D02*
D03*
Y157340D02*
D03*
X415000Y230240D02*
D03*
Y199760D02*
D03*
X340000Y230240D02*
D03*
Y199760D02*
D03*
X255000Y137260D02*
D03*
Y167740D02*
D03*
X140000Y87260D02*
D03*
Y117740D02*
D03*
D23*
X320000Y51500D02*
D03*
Y18500D02*
D03*
D24*
X907740Y142500D02*
D03*
X877260D02*
D03*
X507260Y167500D02*
D03*
X537740D02*
D03*
X109760Y65000D02*
D03*
X140240D02*
D03*
X109760Y40000D02*
D03*
X140240D02*
D03*
X242740Y390664D02*
D03*
X212260D02*
D03*
X242740Y307500D02*
D03*
X212260D02*
D03*
Y282500D02*
D03*
X242740D02*
D03*
D25*
X726550Y170440D02*
D03*
X713850D02*
D03*
X701150D02*
D03*
X688450D02*
D03*
X726550Y114560D02*
D03*
X713850D02*
D03*
X701150D02*
D03*
X688450D02*
D03*
X726550Y332940D02*
D03*
X713850D02*
D03*
X701150D02*
D03*
X688450D02*
D03*
X726550Y277060D02*
D03*
X713850D02*
D03*
X701150D02*
D03*
X688450D02*
D03*
X396550Y242940D02*
D03*
X383850D02*
D03*
X371150D02*
D03*
X358450D02*
D03*
X396550Y187060D02*
D03*
X383850D02*
D03*
X371150D02*
D03*
X358450D02*
D03*
X195950Y124560D02*
D03*
X208650D02*
D03*
X221350D02*
D03*
X234050D02*
D03*
X195950Y180440D02*
D03*
X208650D02*
D03*
X221350D02*
D03*
X234050D02*
D03*
D26*
X549940Y188950D02*
D03*
Y201650D02*
D03*
Y214350D02*
D03*
Y227050D02*
D03*
X494060Y188950D02*
D03*
Y201650D02*
D03*
Y214350D02*
D03*
Y227050D02*
D03*
X199560Y368538D02*
D03*
Y355838D02*
D03*
Y343138D02*
D03*
Y330438D02*
D03*
X255440Y368538D02*
D03*
Y355838D02*
D03*
Y343138D02*
D03*
Y330438D02*
D03*
D27*
X550400Y255000D02*
D03*
X499600D02*
D03*
D53*
X195000Y312500D02*
Y321550D01*
X199560Y326110D01*
X340000Y230240D02*
X352750D01*
X358450Y235940D01*
Y242940D01*
X539600Y114750D02*
Y132660D01*
X522500Y149760D02*
X539600Y132660D01*
X522500Y149760D02*
Y192500D01*
X513350Y201650D02*
X522500Y192500D01*
X494060Y201650D02*
X513350D01*
X537500Y167740D02*
Y180000D01*
Y167740D02*
X537740Y167500D01*
X530650Y186850D02*
X537500Y180000D01*
X530650Y186850D02*
Y202980D01*
X516960Y216670D02*
X530650Y202980D01*
X516960Y216670D02*
Y220540D01*
X510950Y226550D02*
X516960Y220540D01*
X494560Y226550D02*
X510950D01*
X494060Y227050D02*
X494560Y226550D01*
X494060Y249460D02*
X499600Y255000D01*
X494060Y227050D02*
Y249460D01*
X467950Y227050D02*
X494060D01*
X432500Y262500D02*
X467950Y227050D01*
X415000Y262500D02*
X432500D01*
X342499Y285000D02*
X362499Y265000D01*
X443150Y214350D02*
X494060D01*
X442500Y215000D02*
X443150Y214350D01*
X494060D02*
X494560Y213850D01*
X287500Y285000D02*
X342499D01*
X265000Y307500D02*
X287500Y285000D01*
X415000Y230240D02*
Y262500D01*
X340000Y230240D02*
Y251350D01*
X371150Y187060D02*
Y207500D01*
X364645Y222500D02*
X390000D01*
X341905Y199760D02*
X364645Y222500D01*
X390000D02*
X397500Y215000D01*
X442500D01*
X442500Y215000D01*
X340000Y199760D02*
X341905D01*
X354165Y187500D02*
X358010D01*
X358450Y187060D01*
X341905Y199760D02*
X354165Y187500D01*
X242740Y307500D02*
X265000D01*
X199560Y326110D02*
Y330438D01*
X195500D02*
X199560D01*
X255440Y368538D02*
Y375440D01*
X260000Y380000D01*
Y390000D01*
X242740Y390664D02*
X243404Y390000D01*
X260000D01*
X212260Y319760D02*
X221350Y328850D01*
X212260Y311638D02*
Y319760D01*
X242740Y307500D02*
Y319760D01*
Y287138D02*
Y307500D01*
X230000Y332500D02*
X242740Y319760D01*
X230000Y332500D02*
Y342500D01*
X221350Y328850D02*
Y336359D01*
X214571Y343138D02*
X221350Y336359D01*
X199560Y343138D02*
X214571D01*
X229362D02*
X255440D01*
X216662Y355838D02*
X229362Y343138D01*
X199560Y355838D02*
X216662D01*
D54*
X177300Y202300D02*
X177500Y202500D01*
X77900Y202300D02*
X177300D01*
X932500Y112900D02*
X932900Y112500D01*
X932500Y112900D02*
Y132500D01*
X922500Y142500D02*
X932500Y132500D01*
X907740Y142500D02*
X922500D01*
X952499Y162501D02*
X952500Y162501D01*
Y202500D01*
X952500Y202500D01*
X837500Y186000D02*
X842500Y191000D01*
X925000Y202500D02*
X952500D01*
X952500Y202500D01*
X917500Y195000D02*
X925000Y202500D01*
X862500Y195000D02*
X917500D01*
X858500Y191000D02*
X862500Y195000D01*
X858500Y191000D02*
Y191000D01*
X842500Y191000D02*
X858500D01*
X131000Y357000D02*
Y412000D01*
X15000Y272500D02*
X22500Y280000D01*
X15000Y214350D02*
Y272500D01*
Y214350D02*
X27050Y202300D01*
X22500Y280000D02*
X37500D01*
X27050Y202300D02*
X77900D01*
X125000Y230000D02*
X137500D01*
X85000D02*
X125000D01*
X70000Y245000D02*
X85000Y230000D01*
X131000Y309240D02*
Y357000D01*
X137500Y230000D02*
X145001Y237501D01*
Y295239D01*
X131000Y309240D02*
X145001Y295239D01*
X125000Y230000D02*
Y250000D01*
X37500Y245000D02*
X70000D01*
X37500Y280000D02*
X37500Y280000D01*
X60000D01*
X90000Y250000D01*
X105000D01*
X111000Y357000D02*
Y412000D01*
Y330050D02*
Y357000D01*
X102500Y321550D02*
X111000Y330050D01*
X79050Y321550D02*
X102500D01*
X77900Y322700D02*
X79050Y321550D01*
X47500D02*
X76750D01*
X77900Y322700D01*
X37500Y311550D02*
X47500Y321550D01*
X37500Y280000D02*
Y311550D01*
D55*
X952500Y237500D02*
X952500Y237500D01*
X969456D01*
X980000Y226956D01*
Y130000D02*
Y226956D01*
X962500Y112500D02*
X980000Y130000D01*
X932900Y112500D02*
X962500D01*
X688650Y42500D02*
X862900D01*
X475000D02*
X688650D01*
X862900D02*
X932900Y112500D01*
X694780Y48630D02*
Y87500D01*
X688650Y42500D02*
X694780Y48630D01*
X695632Y336273D02*
X703773D01*
X604445Y427460D02*
X695632Y336273D01*
X146460Y427460D02*
X604445D01*
X430000Y87500D02*
X475000Y42500D01*
X247740Y87500D02*
X430000D01*
X229999Y69759D02*
X247740Y87500D01*
X229999Y27501D02*
Y69759D01*
X131000Y412000D02*
X146460Y427460D01*
D56*
X880000Y129095D02*
D03*
D57*
X838750Y156675D02*
D03*
D58*
X707500Y333990D02*
D03*
D59*
X837500Y245000D02*
D03*
Y195000D02*
D03*
D60*
X882100Y112500D02*
D03*
X932900D02*
D03*
D61*
X952500Y237500D02*
D03*
X37500Y245000D02*
D03*
D62*
X952500Y202500D02*
D03*
X37500Y280000D02*
D03*
D63*
X952499Y162501D02*
D03*
X742499Y220001D02*
D03*
X169999Y152501D02*
D03*
X442500Y215000D02*
D03*
X619999Y157499D02*
D03*
X620000Y290000D02*
D03*
X287500Y285000D02*
D03*
Y152100D02*
D03*
X372499Y27501D02*
D03*
X229999D02*
D03*
D64*
X590000Y221650D02*
D03*
Y201650D02*
D03*
X131000Y357000D02*
D03*
X111000D02*
D03*
X131000Y412000D02*
D03*
X111000D02*
D03*
D65*
X565000Y114750D02*
D03*
D66*
X539600D02*
D03*
D67*
X110400D02*
D03*
Y158750D02*
D03*
X35400Y167750D02*
D03*
Y105750D02*
D03*
D68*
X70400Y111750D02*
D03*
Y161750D02*
D03*
X690000Y97600D02*
D03*
X195000Y312500D02*
D03*
X965000Y347600D02*
D03*
X990000Y297600D02*
D03*
Y197600D02*
D03*
Y97600D02*
D03*
X915000Y347600D02*
D03*
X940000Y297600D02*
D03*
X915000Y247600D02*
D03*
X940000Y97600D02*
D03*
X890000Y397600D02*
D03*
X865000Y347600D02*
D03*
X890000Y297600D02*
D03*
X865000Y47600D02*
D03*
X840000Y397600D02*
D03*
X815000Y347600D02*
D03*
Y47600D02*
D03*
X790000Y397600D02*
D03*
X765000Y347600D02*
D03*
X790000Y197600D02*
D03*
X765000Y147600D02*
D03*
X790000Y97600D02*
D03*
X765000Y47600D02*
D03*
X740000Y397600D02*
D03*
Y97600D02*
D03*
X715000Y47600D02*
D03*
X690000Y397600D02*
D03*
X665000Y47600D02*
D03*
X615000Y347600D02*
D03*
X640000Y97600D02*
D03*
X615000Y47600D02*
D03*
X590000Y397600D02*
D03*
X565000Y347600D02*
D03*
Y147600D02*
D03*
X590000Y97600D02*
D03*
X565000Y47600D02*
D03*
X540000Y397600D02*
D03*
X515000Y347600D02*
D03*
Y47600D02*
D03*
X490000Y397600D02*
D03*
X465000Y347600D02*
D03*
X490000Y297600D02*
D03*
X465000Y247600D02*
D03*
Y147600D02*
D03*
X490000Y97600D02*
D03*
X465000Y47600D02*
D03*
X440000Y397600D02*
D03*
X415000Y347600D02*
D03*
X440000Y297600D02*
D03*
X415000Y147600D02*
D03*
X440000Y97600D02*
D03*
X415000Y47600D02*
D03*
X390000Y397600D02*
D03*
X365000Y147600D02*
D03*
X390000Y97600D02*
D03*
X340000Y397600D02*
D03*
X315000Y347600D02*
D03*
X340000Y297600D02*
D03*
X315000Y247600D02*
D03*
X340000Y97600D02*
D03*
X290000Y397600D02*
D03*
X265000Y247600D02*
D03*
X290000Y197600D02*
D03*
X265000Y47600D02*
D03*
X215000Y247600D02*
D03*
X240000Y197600D02*
D03*
X215000Y47600D02*
D03*
X190000Y397600D02*
D03*
X165000Y347600D02*
D03*
Y247600D02*
D03*
X190000Y197600D02*
D03*
X165000Y47600D02*
D03*
X90000Y397600D02*
D03*
X65000Y347600D02*
D03*
X90000Y297600D02*
D03*
X65000Y147600D02*
D03*
X15000Y347600D02*
D03*
X40000Y297600D02*
D03*
X15000Y247600D02*
D03*
X40000Y197600D02*
D03*
X15000Y147600D02*
D03*
X208775Y101225D02*
D03*
X362499Y265000D02*
D03*
X415000Y262500D02*
D03*
X340000Y251350D02*
D03*
X371150Y207500D02*
D03*
X260000Y390000D02*
D03*
D69*
X77900Y202300D02*
D03*
Y322700D02*
D03*
D70*
X125000Y250000D02*
D03*
Y275000D02*
D03*
X105000D02*
D03*
D71*
Y250000D02*
D03*
D72*
X980400Y408970D02*
D03*
Y382300D02*
D03*
X929600D02*
D03*
Y407700D02*
D03*
X968970Y369600D02*
D03*
X942300D02*
D03*
X968970Y420400D02*
D03*
X942300D02*
D03*
X980400Y58970D02*
D03*
Y32300D02*
D03*
X929600D02*
D03*
Y57700D02*
D03*
X968970Y19600D02*
D03*
X942300D02*
D03*
X968970Y70400D02*
D03*
X942300D02*
D03*
X70400Y408970D02*
D03*
Y382300D02*
D03*
X19600D02*
D03*
Y407700D02*
D03*
X58970Y369600D02*
D03*
X32300D02*
D03*
X58970Y420400D02*
D03*
X32300D02*
D03*
X70400Y58970D02*
D03*
Y32300D02*
D03*
X19600D02*
D03*
Y57700D02*
D03*
X58970Y19600D02*
D03*
X32300D02*
D03*
X58970Y70400D02*
D03*
X32300D02*
D03*
D73*
X955000Y395000D02*
D03*
Y45000D02*
D03*
X45000Y395000D02*
D03*
Y45000D02*
D03*
M02*
