G04*
G04 #@! TF.GenerationSoftware,Altium Limited,Altium Designer,19.0.15 (446)*
G04*
G04 Layer_Color=8388736*
%FSLAX44Y44*%
%MOMM*%
G71*
G01*
G75*
%ADD28R,2.7432X3.2032*%
%ADD29R,2.4032X2.2032*%
%ADD30R,5.6032X3.7032*%
%ADD31R,4.7032X2.2032*%
%ADD32R,1.8542X1.4732*%
%ADD33R,2.1032X1.4732*%
%ADD34R,1.4732X1.8542*%
%ADD35R,0.8032X2.2032*%
%ADD36R,2.2032X0.8032*%
%ADD37R,2.5032X2.5032*%
%ADD38C,3.2032*%
%ADD39C,2.0032*%
%ADD40R,2.3032X2.3032*%
%ADD41P,2.4930X8X292.5*%
%ADD42C,2.7032*%
%ADD43C,1.8032*%
%ADD44P,2.3848X8X22.5*%
%ADD45R,2.2032X2.2032*%
%ADD46C,3.0032*%
%ADD47C,1.2032*%
%ADD48C,4.2032*%
G04:AMPARAMS|DCode=49|XSize=1.8032mm|YSize=2.2032mm|CornerRadius=0mm|HoleSize=0mm|Usage=FLASHONLY|Rotation=0.000|XOffset=0mm|YOffset=0mm|HoleType=Round|Shape=Octagon|*
%AMOCTAGOND49*
4,1,8,-0.4508,1.1016,0.4508,1.1016,0.9016,0.6508,0.9016,-0.6508,0.4508,-1.1016,-0.4508,-1.1016,-0.9016,-0.6508,-0.9016,0.6508,-0.4508,1.1016,0.0*
%
%ADD49OCTAGOND49*%

G04:AMPARAMS|DCode=50|XSize=1.7032mm|YSize=2.2032mm|CornerRadius=0mm|HoleSize=0mm|Usage=FLASHONLY|Rotation=0.000|XOffset=0mm|YOffset=0mm|HoleType=Round|Shape=Octagon|*
%AMOCTAGOND50*
4,1,8,-0.4258,1.1016,0.4258,1.1016,0.8516,0.6758,0.8516,-0.6758,0.4258,-1.1016,-0.4258,-1.1016,-0.8516,-0.6758,-0.8516,0.6758,-0.4258,1.1016,0.0*
%
%ADD50OCTAGOND50*%

%ADD51C,1.7780*%
%ADD52P,7.7968X8X292.5*%
D28*
X837500Y167930D02*
D03*
Y272070D02*
D03*
D29*
Y254000D02*
D03*
Y186000D02*
D03*
D30*
Y273000D02*
D03*
Y167000D02*
D03*
D31*
Y197000D02*
D03*
Y243000D02*
D03*
D32*
X292500Y50240D02*
D03*
Y19760D02*
D03*
X667500Y320480D02*
D03*
Y290000D02*
D03*
X665000Y126860D02*
D03*
Y157340D02*
D03*
X415000Y230240D02*
D03*
Y199760D02*
D03*
X340000Y230240D02*
D03*
Y199760D02*
D03*
X255000Y137260D02*
D03*
Y167740D02*
D03*
X140000Y87260D02*
D03*
Y117740D02*
D03*
D33*
X320000Y51500D02*
D03*
Y18500D02*
D03*
D34*
X907740Y142500D02*
D03*
X877260D02*
D03*
X507260Y167500D02*
D03*
X537740D02*
D03*
X109760Y65000D02*
D03*
X140240D02*
D03*
X109760Y40000D02*
D03*
X140240D02*
D03*
X242740Y390664D02*
D03*
X212260D02*
D03*
X242740Y307500D02*
D03*
X212260D02*
D03*
Y282500D02*
D03*
X242740D02*
D03*
D35*
X726550Y170440D02*
D03*
X713850D02*
D03*
X701150D02*
D03*
X688450D02*
D03*
X726550Y114560D02*
D03*
X713850D02*
D03*
X701150D02*
D03*
X688450D02*
D03*
X726550Y332940D02*
D03*
X713850D02*
D03*
X701150D02*
D03*
X688450D02*
D03*
X726550Y277060D02*
D03*
X713850D02*
D03*
X701150D02*
D03*
X688450D02*
D03*
X396550Y242940D02*
D03*
X383850D02*
D03*
X371150D02*
D03*
X358450D02*
D03*
X396550Y187060D02*
D03*
X383850D02*
D03*
X371150D02*
D03*
X358450D02*
D03*
X195950Y124560D02*
D03*
X208650D02*
D03*
X221350D02*
D03*
X234050D02*
D03*
X195950Y180440D02*
D03*
X208650D02*
D03*
X221350D02*
D03*
X234050D02*
D03*
D36*
X549940Y188950D02*
D03*
Y201650D02*
D03*
Y214350D02*
D03*
Y227050D02*
D03*
X494060Y188950D02*
D03*
Y201650D02*
D03*
Y214350D02*
D03*
Y227050D02*
D03*
X199560Y368538D02*
D03*
Y355838D02*
D03*
Y343138D02*
D03*
Y330438D02*
D03*
X255440Y368538D02*
D03*
Y355838D02*
D03*
Y343138D02*
D03*
Y330438D02*
D03*
D37*
X550400Y255000D02*
D03*
X499600D02*
D03*
D38*
X837500Y245000D02*
D03*
Y195000D02*
D03*
D39*
X882100Y112500D02*
D03*
X932900D02*
D03*
D40*
X952500Y237500D02*
D03*
X37500Y245000D02*
D03*
D41*
X952500Y202500D02*
D03*
X37500Y280000D02*
D03*
D42*
X952499Y162501D02*
D03*
X742499Y220001D02*
D03*
X169999Y152501D02*
D03*
X442500Y215000D02*
D03*
X619999Y157499D02*
D03*
X620000Y290000D02*
D03*
X287500Y285000D02*
D03*
Y152100D02*
D03*
X372499Y27501D02*
D03*
X229999D02*
D03*
D43*
X590000Y221650D02*
D03*
Y201650D02*
D03*
X131000Y357000D02*
D03*
X111000D02*
D03*
X131000Y412000D02*
D03*
X111000D02*
D03*
D44*
X565000Y114750D02*
D03*
D45*
X539600D02*
D03*
D46*
X110400D02*
D03*
Y158750D02*
D03*
X35400Y167750D02*
D03*
Y105750D02*
D03*
D47*
X70400Y111750D02*
D03*
Y161750D02*
D03*
D48*
X77900Y202300D02*
D03*
Y322700D02*
D03*
D49*
X125000Y250000D02*
D03*
Y275000D02*
D03*
X105000D02*
D03*
D50*
Y250000D02*
D03*
D51*
X980400Y408970D02*
D03*
Y382300D02*
D03*
X929600D02*
D03*
Y407700D02*
D03*
X968970Y369600D02*
D03*
X942300D02*
D03*
X968970Y420400D02*
D03*
X942300D02*
D03*
X980400Y58970D02*
D03*
Y32300D02*
D03*
X929600D02*
D03*
Y57700D02*
D03*
X968970Y19600D02*
D03*
X942300D02*
D03*
X968970Y70400D02*
D03*
X942300D02*
D03*
X70400Y408970D02*
D03*
Y382300D02*
D03*
X19600D02*
D03*
Y407700D02*
D03*
X58970Y369600D02*
D03*
X32300D02*
D03*
X58970Y420400D02*
D03*
X32300D02*
D03*
X70400Y58970D02*
D03*
Y32300D02*
D03*
X19600D02*
D03*
Y57700D02*
D03*
X58970Y19600D02*
D03*
X32300D02*
D03*
X58970Y70400D02*
D03*
X32300D02*
D03*
D52*
X955000Y395000D02*
D03*
Y45000D02*
D03*
X45000Y395000D02*
D03*
Y45000D02*
D03*
M02*
