G04*
G04 #@! TF.GenerationSoftware,Altium Limited,Altium Designer,19.0.15 (446)*
G04*
G04 Layer_Color=8421504*
%FSLAX44Y44*%
%MOMM*%
G71*
G01*
G75*
%ADD18R,2.5400X3.0000*%
%ADD19R,2.2000X2.0000*%
%ADD20R,5.4000X3.5000*%
%ADD21R,4.5000X2.0000*%
%ADD22R,1.6510X1.2700*%
%ADD23R,1.9000X1.2700*%
%ADD24R,1.2700X1.6510*%
%ADD25R,0.6000X2.0000*%
%ADD26R,2.0000X0.6000*%
%ADD27R,2.3000X2.3000*%
D18*
X837500Y167930D02*
D03*
Y272070D02*
D03*
D19*
Y254000D02*
D03*
Y186000D02*
D03*
D20*
Y273000D02*
D03*
Y167000D02*
D03*
D21*
Y197000D02*
D03*
Y243000D02*
D03*
D22*
X292500Y50240D02*
D03*
Y19760D02*
D03*
X667500Y320480D02*
D03*
Y290000D02*
D03*
X665000Y126860D02*
D03*
Y157340D02*
D03*
X415000Y230240D02*
D03*
Y199760D02*
D03*
X340000Y230240D02*
D03*
Y199760D02*
D03*
X255000Y137260D02*
D03*
Y167740D02*
D03*
X140000Y87260D02*
D03*
Y117740D02*
D03*
D23*
X320000Y51500D02*
D03*
Y18500D02*
D03*
D24*
X907740Y142500D02*
D03*
X877260D02*
D03*
X507260Y167500D02*
D03*
X537740D02*
D03*
X109760Y65000D02*
D03*
X140240D02*
D03*
X109760Y40000D02*
D03*
X140240D02*
D03*
X242740Y390664D02*
D03*
X212260D02*
D03*
X242740Y307500D02*
D03*
X212260D02*
D03*
Y282500D02*
D03*
X242740D02*
D03*
D25*
X726550Y170440D02*
D03*
X713850D02*
D03*
X701150D02*
D03*
X688450D02*
D03*
X726550Y114560D02*
D03*
X713850D02*
D03*
X701150D02*
D03*
X688450D02*
D03*
X726550Y332940D02*
D03*
X713850D02*
D03*
X701150D02*
D03*
X688450D02*
D03*
X726550Y277060D02*
D03*
X713850D02*
D03*
X701150D02*
D03*
X688450D02*
D03*
X396550Y242940D02*
D03*
X383850D02*
D03*
X371150D02*
D03*
X358450D02*
D03*
X396550Y187060D02*
D03*
X383850D02*
D03*
X371150D02*
D03*
X358450D02*
D03*
X195950Y124560D02*
D03*
X208650D02*
D03*
X221350D02*
D03*
X234050D02*
D03*
X195950Y180440D02*
D03*
X208650D02*
D03*
X221350D02*
D03*
X234050D02*
D03*
D26*
X549940Y188950D02*
D03*
Y201650D02*
D03*
Y214350D02*
D03*
Y227050D02*
D03*
X494060Y188950D02*
D03*
Y201650D02*
D03*
Y214350D02*
D03*
Y227050D02*
D03*
X199560Y368538D02*
D03*
Y355838D02*
D03*
Y343138D02*
D03*
Y330438D02*
D03*
X255440Y368538D02*
D03*
Y355838D02*
D03*
Y343138D02*
D03*
Y330438D02*
D03*
D27*
X550400Y255000D02*
D03*
X499600D02*
D03*
M02*
