G04*
G04 #@! TF.GenerationSoftware,Altium Limited,Altium Designer,19.0.15 (446)*
G04*
G04 Layer_Color=255*
%FSLAX44Y44*%
%MOMM*%
G71*
G01*
G75*
%ADD24R,1.2700X1.6510*%
%ADD59C,3.0000*%
%ADD60C,1.8000*%
%ADD61R,2.1000X2.1000*%
%ADD62P,2.2730X8X292.5*%
%ADD63C,2.5000*%
%ADD64C,1.6000*%
%ADD65P,2.1648X8X22.5*%
%ADD66R,2.0000X2.0000*%
%ADD67C,2.8000*%
%ADD68C,1.0000*%
%ADD69C,4.0000*%
G04:AMPARAMS|DCode=70|XSize=1.6mm|YSize=2mm|CornerRadius=0mm|HoleSize=0mm|Usage=FLASHONLY|Rotation=0.000|XOffset=0mm|YOffset=0mm|HoleType=Round|Shape=Octagon|*
%AMOCTAGOND70*
4,1,8,-0.4000,1.0000,0.4000,1.0000,0.8000,0.6000,0.8000,-0.6000,0.4000,-1.0000,-0.4000,-1.0000,-0.8000,-0.6000,-0.8000,0.6000,-0.4000,1.0000,0.0*
%
%ADD70OCTAGOND70*%

G04:AMPARAMS|DCode=71|XSize=1.5mm|YSize=2mm|CornerRadius=0mm|HoleSize=0mm|Usage=FLASHONLY|Rotation=0.000|XOffset=0mm|YOffset=0mm|HoleType=Round|Shape=Octagon|*
%AMOCTAGOND71*
4,1,8,-0.3750,1.0000,0.3750,1.0000,0.7500,0.6250,0.7500,-0.6250,0.3750,-1.0000,-0.3750,-1.0000,-0.7500,-0.6250,-0.7500,0.6250,-0.3750,1.0000,0.0*
%
%ADD71OCTAGOND71*%

%ADD72C,1.5748*%
%ADD73P,7.5768X8X292.5*%
D24*
X138240Y223050D02*
D03*
X107760D02*
D03*
X138240Y199000D02*
D03*
X107760D02*
D03*
D59*
X837500Y245000D02*
D03*
Y195000D02*
D03*
D60*
X882100Y112500D02*
D03*
X932900D02*
D03*
D61*
X952500Y237500D02*
D03*
X37500Y245000D02*
D03*
D62*
X952500Y202500D02*
D03*
X37500Y280000D02*
D03*
D63*
X952499Y162501D02*
D03*
X742499Y220001D02*
D03*
X169999Y152501D02*
D03*
X442500Y215000D02*
D03*
X619999Y157499D02*
D03*
X620000Y290000D02*
D03*
X287500Y285000D02*
D03*
Y152100D02*
D03*
X372499Y27501D02*
D03*
X229999D02*
D03*
D64*
X590000Y221650D02*
D03*
Y201650D02*
D03*
X131000Y357000D02*
D03*
X111000D02*
D03*
X131000Y412000D02*
D03*
X111000D02*
D03*
D65*
X565000Y114750D02*
D03*
D66*
X539600D02*
D03*
D67*
X110400D02*
D03*
Y158750D02*
D03*
X35400Y167750D02*
D03*
Y105750D02*
D03*
D68*
X70400Y111750D02*
D03*
Y161750D02*
D03*
D69*
X77900Y202300D02*
D03*
Y322700D02*
D03*
D70*
X125000Y250000D02*
D03*
Y275000D02*
D03*
X105000D02*
D03*
D71*
Y250000D02*
D03*
D72*
X980400Y408970D02*
D03*
Y382300D02*
D03*
X929600D02*
D03*
Y407700D02*
D03*
X968970Y369600D02*
D03*
X942300D02*
D03*
X968970Y420400D02*
D03*
X942300D02*
D03*
X980400Y58970D02*
D03*
Y32300D02*
D03*
X929600D02*
D03*
Y57700D02*
D03*
X968970Y19600D02*
D03*
X942300D02*
D03*
X968970Y70400D02*
D03*
X942300D02*
D03*
X70400Y408970D02*
D03*
Y382300D02*
D03*
X19600D02*
D03*
Y407700D02*
D03*
X58970Y369600D02*
D03*
X32300D02*
D03*
X58970Y420400D02*
D03*
X32300D02*
D03*
X70400Y58970D02*
D03*
Y32300D02*
D03*
X19600D02*
D03*
Y57700D02*
D03*
X58970Y19600D02*
D03*
X32300D02*
D03*
X58970Y70400D02*
D03*
X32300D02*
D03*
D73*
X955000Y395000D02*
D03*
Y45000D02*
D03*
X45000Y395000D02*
D03*
Y45000D02*
D03*
M02*
