M48
;Layer_Color=9474304
;FILE_FORMAT=4:4
METRIC,LZ
;TYPE=PLATED
T1F00S00C0.4000
T2F00S00C0.6000
T3F00S00C0.8000
T4F00S00C0.9000
T5F00S00C0.9144
T6F00S00C0.9500
T7F00S00C1.0000
T8F00S00C1.1000
T9F00S00C1.4000
T10F00S00C1.5000
T11F00S00C2.3000
T12F00S00C3.2000
%
T01
X00715Y000476
X00765
X00815
X00865
X0094Y000976
X0099
Y001976
Y002976
X0094
X0089
X00915Y002476
X0079Y001976
X00765Y001476
X0079Y000976
X0074
X0069
X0064
X0059
X00615Y000476
X00665
X00565
X00515
X00465
X00415
X0044Y000976
X0049
X00465Y001476
X00415
X00365
X0037115Y002075
X00362499Y00265
X0034Y0025135
X00315Y002476
X0034Y002976
X0044
X0049
X00465Y002476
X00415Y002625
X0039Y000976
X0034
X00565Y001476
X0029Y001976
X0024
X0019
X00215Y002476
X00265
X00165
X00195Y003125
X0009Y002976
X0004
X00015Y002476
X0004Y001976
X00065Y001476
X00015
X00208775Y00101225
X00215Y000476
X00265
X00165
Y003476
X0019Y003976
X0026Y0039
X0029Y003976
X0009
X00065Y003476
X00015
X00315
X0034Y003976
X0039
X0044
X0049
X0054
X0059
X00615Y003476
X00565
X00515
X00465
X00415
X0069Y003976
X0074
X0079
X0084
X0089
X00915Y003476
X00965
X00865
X00815
X00765
T02
X0059Y0020165
Y0022165
X00131Y00357
X00111
Y00412
X00131
T03
X008821Y001125
X009329
T04
X00742499Y00220001
X00952499Y00162501
X00619999Y00157499
X0062Y0029
X004425Y00215
X00372499Y00027501
X00229999
X002875Y001521
X00169999Y00152501
X002875Y00285
T05
X009296Y000323
Y000577
X009423Y000704
X0096897
X009804Y0005897
Y000323
X0096897Y000196
X009423
X0005897
X000704Y000323
Y0005897
X0005897Y000704
X000323
X000196Y000577
Y000323
X000323Y000196
Y003696
X000196Y003823
Y004077
X000323Y004204
X0005897
X000704Y0040897
Y003823
X0005897Y003696
X009296Y003823
Y004077
X009423Y004204
X0096897
X009804Y0040897
Y003823
X0096897Y003696
X009423
T06
X00105Y0025
X00125
Y00275
X00105
T07
X008375Y00195
Y00245
X00565Y0011475
X005396
T08
X009525Y002025
Y002375
X000375Y00245
Y0028
X000704Y0016175
Y0011175
T09
X001104Y0011475
Y0015875
T10
X000354Y0010575
Y0016775
T11
X000779Y002023
Y003227
T12
X00955Y00045
X00045
Y00395
X00955
M30
